# File created by Blade
# Date/Time:  Fri Jan 16 19:41:12 2015
# Frame Rate: 120.000 fps
#------------------------------------------------------
:FULLY-SPECIFIED
:DEGREES
1256
root 22.461201 35.654100 -23.569201 5.804115 -1.490988 -2.000317
Spine -12.754217 -1.692293 -3.172738
Head 20.110366 -19.560921 4.318721
LeftShoulder -10.836063 -25.973022 20.032926
LeftArm -5.734100 10.572094 -15.839134
LeftForeArm 31.565850 -0.000000 3.363005
LeftHand 16.825039 -0.000000 38.169206
LeftHandThumb1 -26.253704 0.000000 33.147579
RightShoulder -9.473717 -18.142390 -0.144106
RightArm 10.326032 1.248134 25.241745
RightForeArm -41.844952 -0.000000 17.105046
RightHand -0.023719 -0.000000 6.787256
RightHandThumb1 -24.326973 -0.000000 -32.862282
LeftUpLeg 1.495006 5.771880 -4.122059
LeftLeg -6.546768 -0.000000 0.000000
LeftFoot -20.125094 30.177706 -11.099377
LeftToeBase 22.405110 -0.000000 -0.000000
RightUpLeg -8.206066 -7.521688 -5.953308
RightLeg 10.633767 -0.000000 -0.000000
RightFoot -19.417288 -23.648037 23.142863
RightToeBase 21.229189 -0.000000 -0.000000
1257
root 22.451933 35.651429 -23.563271 5.849924 -1.345006 -1.948425
Spine -12.957011 -1.762293 -3.161606
Head 19.693705 -19.022470 4.657617
LeftShoulder -10.671564 -26.159398 20.213361
LeftArm -5.560021 10.602104 -16.290914
LeftForeArm 31.108456 -0.000000 2.044601
LeftHand 16.453295 -0.000000 34.547993
LeftHandThumb1 -26.253704 0.000000 33.147579
RightShoulder -9.488050 -17.616899 -0.277422
RightArm 10.510758 2.539646 24.645613
RightForeArm -41.897841 -0.000000 16.464569
RightHand -0.084217 -0.000000 6.777448
RightHandThumb1 -24.326973 -0.000000 -32.862282
LeftUpLeg 1.437251 5.633785 -4.148903
LeftLeg -6.520131 -0.000000 0.000000
LeftFoot -20.134204 30.164304 -11.111686
LeftToeBase 22.398783 -0.000000 -0.000000
RightUpLeg -8.157491 -7.680154 -5.931088
RightLeg 10.507498 -0.000000 -0.000000
RightFoot -19.562293 -23.858686 22.948322
RightToeBase 21.574601 -0.000000 -0.000000
1258
root 22.441431 35.649072 -23.557419 5.869018 -1.214763 -1.895404
Spine -13.128393 -1.784610 -3.165671
Head 19.326775 -18.518684 5.006995
LeftShoulder -10.450326 -26.258842 20.294755
LeftArm -5.436615 10.326597 -16.617792
LeftForeArm 30.912827 -0.000000 0.991532
LeftHand 15.918390 -0.000000 31.074018
LeftHandThumb1 -26.253704 0.000000 33.147579
RightShoulder -9.470401 -17.116616 -0.399608
RightArm 10.640976 3.729380 24.020712
RightForeArm -41.783740 0.000000 15.809647
RightHand -0.154702 -0.000000 6.764849
RightHandThumb1 -24.326973 -0.000000 -32.862282
LeftUpLeg 1.409068 5.533595 -4.185109
LeftLeg -6.513627 -0.000000 0.000000
LeftFoot -20.089226 30.245019 -11.018340
LeftToeBase 22.458323 -0.000000 -0.000000
RightUpLeg -8.084797 -7.781515 -5.919147
RightLeg 10.391902 -0.000000 -0.000000
RightFoot -19.694767 -24.049936 22.876170
RightToeBase 21.551069 -0.000000 -0.000000
1259
root 22.426232 35.646391 -23.553933 5.919564 -1.103917 -1.854200
Spine -13.303785 -1.782863 -3.169195
Head 18.874409 -18.050456 5.365081
LeftShoulder -10.203524 -26.519531 20.352328
LeftArm -5.574071 10.068477 -16.826367
LeftForeArm 30.838867 -0.000000 0.343558
LeftHand 15.595353 -0.000000 27.872961
LeftHandThumb1 -26.253704 0.000000 33.147579
RightShoulder -9.461298 -16.540550 -0.538184
RightArm 10.724680 4.747590 23.404173
RightForeArm -41.784438 -0.000000 15.174503
RightHand -0.194849 -0.000000 6.777609
RightHandThumb1 -24.326973 -0.000000 -32.862282
LeftUpLeg 1.348871 5.428182 -4.197432
LeftLeg -6.498099 -0.000000 0.000000
LeftFoot -20.101822 30.257517 -11.028127
LeftToeBase 22.480824 -0.000000 -0.000000
RightUpLeg -8.052044 -7.818938 -5.888286
RightLeg 10.274283 -0.000000 -0.000000
RightFoot -19.838745 -24.257312 22.952706
RightToeBase 21.341771 -0.000000 -0.000000
1260
root 22.409215 35.644137 -23.548575 5.967215 -0.957345 -1.804838
Spine -13.490186 -1.820109 -3.157975
Head 18.496686 -17.520174 5.633394
LeftShoulder -10.106248 -26.691403 20.377510
LeftArm -5.519914 9.691417 -16.978766
LeftForeArm 30.669993 -0.000000 -0.070547
LeftHand 14.742743 0.000000 24.838861
LeftHandThumb1 -26.253704 0.000000 33.147579
RightShoulder -9.401812 -16.068145 -0.749480
RightArm 10.791858 5.779301 22.866510
RightForeArm -41.689358 -0.000000 14.615329
RightHand -0.371223 -0.000000 6.870115
RightHandThumb1 -24.326973 -0.000000 -32.862282
LeftUpLeg 1.292208 5.289093 -4.210105
LeftLeg -6.477023 -0.000000 0.000000
LeftFoot -20.098287 30.262055 -11.025782
LeftToeBase 22.497496 -0.000000 -0.000000
RightUpLeg -7.989680 -7.907470 -5.852641
RightLeg 10.114883 -0.000000 -0.000000
RightFoot -19.983294 -24.525444 22.888074
RightToeBase 21.335675 -0.000000 -0.000000
1261
root 22.390426 35.640226 -23.544354 6.042922 -0.828409 -1.756434
Spine -13.681637 -1.802660 -3.163762
Head 18.066497 -17.033845 5.924725
LeftShoulder -10.004924 -26.849422 20.376359
LeftArm -5.532653 9.261185 -17.085620
LeftForeArm 30.430516 -0.000000 -0.242884
LeftHand 13.829634 -0.000000 22.321880
LeftHandThumb1 -26.253704 0.000000 33.147579
RightShoulder -9.402314 -15.589199 -0.941969
RightArm 10.831132 6.661768 22.299577
RightForeArm -41.591734 -0.000000 14.067028
RightHand -0.419775 0.000000 6.850065
RightHandThumb1 -24.326973 -0.000000 -32.862282
LeftUpLeg 1.209190 5.165030 -4.222037
LeftLeg -6.461497 -0.000000 0.000000
LeftFoot -20.107017 30.251901 -11.007874
LeftToeBase 22.504797 -0.000000 -0.000000
RightUpLeg -7.962907 -7.944233 -5.814784
RightLeg 9.965263 -0.000000 -0.000000
RightFoot -20.129825 -24.835693 22.814340
RightToeBase 21.356680 -0.000000 -0.000000
1262
root 22.369374 35.637075 -23.538660 6.127531 -0.693938 -1.710433
Spine -13.887770 -1.829169 -3.143976
Head 17.680531 -16.476165 6.157516
LeftShoulder -9.898288 -26.937751 20.310328
LeftArm -5.650215 8.800813 -17.089071
LeftForeArm 30.152612 -0.000000 -0.162538
LeftHand 12.924166 -0.000000 20.084600
LeftHandThumb1 -26.253704 0.000000 33.147579
RightShoulder -9.292426 -15.123306 -1.247441
RightArm 10.749630 7.654210 21.880149
RightForeArm -41.556416 -0.000000 13.623883
RightHand -0.506698 -0.000000 6.858574
RightHandThumb1 -24.326973 -0.000000 -32.862282
LeftUpLeg 1.129889 5.028803 -4.226808
LeftLeg -6.462863 -0.000000 0.000000
LeftFoot -20.093394 30.257631 -10.997761
LeftToeBase 22.536549 -0.000000 -0.000000
RightUpLeg -7.917475 -7.979194 -5.774574
RightLeg 9.770356 -0.000000 -0.000000
RightFoot -20.240272 -25.158169 22.709987
RightToeBase 21.283745 -0.000000 -0.000000
1263
root 22.346424 35.635942 -23.531186 6.211076 -0.539381 -1.668194
Spine -14.088062 -1.827999 -3.126265
Head 17.306127 -15.985047 6.334284
LeftShoulder -9.874460 -27.046029 20.192796
LeftArm -5.582983 8.469956 -17.051845
LeftForeArm 29.725959 -0.000000 -0.050918
LeftHand 11.570287 0.000000 17.957775
LeftHandThumb1 -26.253704 0.000000 33.147579
RightShoulder -9.180696 -14.568980 -1.590577
RightArm 10.555148 8.518458 21.489965
RightForeArm -41.393520 -0.000000 13.194410
RightHand -0.704840 -0.000000 6.812922
RightHandThumb1 -24.326973 -0.000000 -32.862282
LeftUpLeg 1.054276 4.882167 -4.223386
LeftLeg -6.469418 -0.000000 0.000000
LeftFoot -20.076640 30.254566 -10.993838
LeftToeBase 22.564731 -0.000000 -0.000000
RightUpLeg -7.847976 -8.018126 -5.717033
RightLeg 9.521010 -0.000000 -0.000000
RightFoot -20.363247 -25.594526 22.640946
RightToeBase 21.338555 -0.000000 -0.000000
1264
root 22.324212 35.631791 -23.518331 6.278397 -0.428042 -1.615538
Spine -14.265537 -1.794341 -3.127411
Head 16.898378 -15.495456 6.536146
LeftShoulder -9.925859 -27.182154 20.159433
LeftArm -5.543387 8.187023 -17.033704
LeftForeArm 29.371440 -0.000000 -0.004498
LeftHand 10.871938 -0.000000 16.477963
LeftHandThumb1 -26.253704 0.000000 33.147579
RightShoulder -9.127978 -14.119131 -1.927545
RightArm 10.455571 9.422780 21.120122
RightForeArm -41.109913 -0.000000 12.709533
RightHand -0.753701 -0.000000 6.618541
RightHandThumb1 -24.326973 -0.000000 -32.862282
LeftUpLeg 1.021093 4.802797 -4.230937
LeftLeg -6.498732 -0.000000 0.000000
LeftFoot -20.078096 30.186980 -11.018451
LeftToeBase 22.591711 -0.000000 -0.000000
RightUpLeg -7.748543 -8.083193 -5.681352
RightLeg 9.256681 -0.000000 -0.000000
RightFoot -20.467923 -25.891186 22.514066
RightToeBase 21.345476 -0.000000 -0.000000
